<svg width="15" height="18" viewBox="0 0 15 18" fill="none" xmlns="http://www.w3.org/2000/svg">
<path d="M8 17.3332L7.79167 14.8332H7.58333C5.61111 14.8332 3.9375 14.1457 2.5625 12.7707C1.1875 11.3957 0.5 9.72206 0.5 7.74984C0.5 5.77762 1.1875 4.104 2.5625 2.729C3.9375 1.354 5.61111 0.666504 7.58333 0.666504C8.56944 0.666504 9.48972 0.850393 10.3442 1.21817C11.1986 1.58595 11.9486 2.09289 12.5942 2.739C13.2397 3.38511 13.7464 4.13511 14.1142 4.989C14.4819 5.84289 14.6661 6.76317 14.6667 7.74984C14.6667 8.7915 14.4964 9.7915 14.1558 10.7498C13.8153 11.7082 13.35 12.5971 12.76 13.4165C12.17 14.2359 11.4686 14.979 10.6558 15.6457C9.84306 16.3123 8.95778 16.8748 8 17.3332ZM9.66667 14.2915C10.6528 13.4582 11.455 12.4823 12.0733 11.364C12.6917 10.2457 13.0006 9.04095 13 7.74984C13 6.23595 12.4756 4.95484 11.4267 3.9065C10.3778 2.85817 9.09667 2.33373 7.58333 2.33317C6.06944 2.33317 4.78833 2.85761 3.74 3.9065C2.69167 4.95539 2.16722 6.2365 2.16667 7.74984C2.16667 9.26373 2.69111 10.5448 3.74 11.5932C4.78889 12.6415 6.07 13.1659 7.58333 13.1665H9.66667V14.2915ZM7.5625 12.3123C7.79861 12.3123 8 12.229 8.16667 12.0623C8.33333 11.8957 8.41667 11.6943 8.41667 11.4582C8.41667 11.2221 8.33333 11.0207 8.16667 10.854C8 10.6873 7.79861 10.604 7.5625 10.604C7.32639 10.604 7.125 10.6873 6.95833 10.854C6.79167 11.0207 6.70833 11.2221 6.70833 11.4582C6.70833 11.6943 6.79167 11.8957 6.95833 12.0623C7.125 12.229 7.32639 12.3123 7.5625 12.3123ZM6.95833 9.6665H8.20833C8.20833 9.24984 8.25 8.95817 8.33333 8.7915C8.41667 8.62484 8.68056 8.31928 9.125 7.87484C9.375 7.62484 9.58333 7.354 9.75 7.06234C9.91667 6.77067 10 6.45817 10 6.12484C10 5.4165 9.76028 4.88512 9.28083 4.53067C8.80139 4.17623 8.23556 3.99928 7.58333 3.99984C6.97222 3.99984 6.45833 4.17011 6.04167 4.51067C5.625 4.85123 5.33333 5.26428 5.16667 5.74984L6.33333 6.20817C6.40278 5.97206 6.53472 5.73928 6.72917 5.50984C6.92361 5.28039 7.20833 5.16595 7.58333 5.1665C7.95833 5.1665 8.23944 5.27067 8.42667 5.479C8.61389 5.68734 8.70778 5.9165 8.70833 6.1665C8.70833 6.40262 8.63889 6.61456 8.5 6.80234C8.36111 6.99011 8.19444 7.18095 8 7.37484C7.51389 7.7915 7.21861 8.1215 7.11417 8.36484C7.00972 8.60817 6.95778 9.04206 6.95833 9.6665Z" fill="white"/>
</svg>
