<svg width="11" height="11" viewBox="0 0 11 11" fill="none" xmlns="http://www.w3.org/2000/svg">
<path d="M9.33333 3.00008L1.9375 10.4168C1.77083 10.5834 1.57278 10.6668 1.34333 10.6668C1.11389 10.6668 0.916111 10.5834 0.75 10.4168C0.583333 10.2501 0.5 10.052 0.5 9.82259C0.5 9.59314 0.583333 9.39536 0.75 9.22925L8.16667 1.83342H1.83333C1.59722 1.83342 1.39917 1.75342 1.23917 1.59342C1.07917 1.43342 0.999444 1.23564 1 1.00008C1 0.763973 1.08 0.565918 1.24 0.405918C1.4 0.245918 1.59778 0.166195 1.83333 0.166751H10.1667C10.4028 0.166751 10.6008 0.246751 10.7608 0.406751C10.9208 0.566751 11.0006 0.764529 11 1.00008V9.33342C11 9.56953 10.92 9.76758 10.76 9.92758C10.6 10.0876 10.4022 10.1673 10.1667 10.1668C9.93056 10.1668 9.7325 10.0868 9.5725 9.92675C9.4125 9.76675 9.33278 9.56897 9.33333 9.33342V3.00008Z" fill="white"/>
</svg>
