<svg width="20" height="20" viewBox="0 0 20 20" fill="none" xmlns="http://www.w3.org/2000/svg">
<path d="M9.99992 3.3335C10.884 3.3335 11.7318 3.68469 12.3569 4.30981C12.9821 4.93493 13.3333 5.78277 13.3333 6.66683C13.3333 7.55088 12.9821 8.39873 12.3569 9.02385C11.7318 9.64897 10.884 10.0002 9.99992 10.0002C9.11586 10.0002 8.26802 9.64897 7.6429 9.02385C7.01777 8.39873 6.66659 7.55088 6.66659 6.66683C6.66659 5.78277 7.01777 4.93493 7.6429 4.30981C8.26802 3.68469 9.11586 3.3335 9.99992 3.3335ZM9.99992 5.00016C9.55789 5.00016 9.13397 5.17576 8.82141 5.48832C8.50885 5.80088 8.33325 6.2248 8.33325 6.66683C8.33325 7.10886 8.50885 7.53278 8.82141 7.84534C9.13397 8.1579 9.55789 8.3335 9.99992 8.3335C10.4419 8.3335 10.8659 8.1579 11.1784 7.84534C11.491 7.53278 11.6666 7.10886 11.6666 6.66683C11.6666 6.2248 11.491 5.80088 11.1784 5.48832C10.8659 5.17576 10.4419 5.00016 9.99992 5.00016ZM9.99992 10.8335C12.2249 10.8335 16.6666 11.9418 16.6666 14.1668V16.6668H3.33325V14.1668C3.33325 11.9418 7.77492 10.8335 9.99992 10.8335ZM9.99992 12.4168C7.52492 12.4168 4.91659 13.6335 4.91659 14.1668V15.0835H15.0833V14.1668C15.0833 13.6335 12.4749 12.4168 9.99992 12.4168Z" fill="white"/>
</svg>
