<svg width="14" height="14" viewBox="0 0 14 14" fill="none" xmlns="http://www.w3.org/2000/svg">
<path d="M6.99992 0.333496C7.88397 0.333496 8.73182 0.684685 9.35694 1.30981C9.98206 1.93493 10.3333 2.78277 10.3333 3.66683C10.3333 4.55088 9.98206 5.39873 9.35694 6.02385C8.73182 6.64897 7.88397 7.00016 6.99992 7.00016C6.11586 7.00016 5.26802 6.64897 4.6429 6.02385C4.01777 5.39873 3.66659 4.55088 3.66659 3.66683C3.66659 2.78277 4.01777 1.93493 4.6429 1.30981C5.26802 0.684685 6.11586 0.333496 6.99992 0.333496ZM6.99992 2.00016C6.55789 2.00016 6.13397 2.17576 5.82141 2.48832C5.50885 2.80088 5.33325 3.2248 5.33325 3.66683C5.33325 4.10886 5.50885 4.53278 5.82141 4.84534C6.13397 5.1579 6.55789 5.3335 6.99992 5.3335C7.44195 5.3335 7.86587 5.1579 8.17843 4.84534C8.49099 4.53278 8.66658 4.10886 8.66658 3.66683C8.66658 3.2248 8.49099 2.80088 8.17843 2.48832C7.86587 2.17576 7.44195 2.00016 6.99992 2.00016ZM6.99992 7.8335C9.22492 7.8335 13.6666 8.94183 13.6666 11.1668V13.6668H0.333252V11.1668C0.333252 8.94183 4.77492 7.8335 6.99992 7.8335ZM6.99992 9.41683C4.52492 9.41683 1.91659 10.6335 1.91659 11.1668V12.0835H12.0833V11.1668C12.0833 10.6335 9.47492 9.41683 6.99992 9.41683Z" fill="white"/>
</svg>
